<svg width="25" height="24" viewBox="0 0 25 24" fill="none" xmlns="http://www.w3.org/2000/svg">
<path d="M12.9897 2.163C16.1937 2.163 16.5737 2.175 17.8397 2.233C21.0917 2.381 22.6107 3.924 22.7587 7.152C22.8167 8.417 22.8277 8.797 22.8277 12.001C22.8277 15.206 22.8157 15.585 22.7587 16.85C22.6097 20.075 21.0947 21.621 17.8397 21.769C16.5737 21.827 16.1957 21.839 12.9897 21.839C9.78575 21.839 9.40575 21.827 8.14075 21.769C4.88075 21.62 3.36975 20.07 3.22175 16.849C3.16375 15.584 3.15175 15.205 3.15175 12C3.15175 8.796 3.16475 8.417 3.22175 7.151C3.37075 3.924 4.88575 2.38 8.14075 2.232C9.40675 2.175 9.78575 2.163 12.9897 2.163ZM12.9897 0C9.73075 0 9.32275 0.014 8.04275 0.072C3.68475 0.272 1.26275 2.69 1.06275 7.052C1.00375 8.333 0.989746 8.741 0.989746 12C0.989746 15.259 1.00375 15.668 1.06175 16.948C1.26175 21.306 3.67975 23.728 8.04175 23.928C9.32275 23.986 9.73075 24 12.9897 24C16.2487 24 16.6577 23.986 17.9377 23.928C22.2917 23.728 24.7197 21.31 24.9167 16.948C24.9757 15.668 24.9897 15.259 24.9897 12C24.9897 8.741 24.9757 8.333 24.9177 7.053C24.7217 2.699 22.3007 0.273 17.9387 0.073C16.6577 0.014 16.2487 0 12.9897 0ZM12.9897 5.838C9.58675 5.838 6.82775 8.597 6.82775 12C6.82775 15.403 9.58675 18.163 12.9897 18.163C16.3927 18.163 19.1517 15.404 19.1517 12C19.1517 8.597 16.3927 5.838 12.9897 5.838ZM12.9897 16C10.7807 16 8.98975 14.21 8.98975 12C8.98975 9.791 10.7807 8 12.9897 8C15.1987 8 16.9897 9.791 16.9897 12C16.9897 14.21 15.1987 16 12.9897 16ZM19.3957 4.155C18.5997 4.155 17.9547 4.8 17.9547 5.595C17.9547 6.39 18.5997 7.035 19.3957 7.035C20.1907 7.035 20.8347 6.39 20.8347 5.595C20.8347 4.8 20.1907 4.155 19.3957 4.155Z" fill="#1E1E1E"/>
</svg>
